<svg xmlns="http://www.w3.org/2000/svg" height="48" viewBox="0 -960 960 960" width="48"><path d="M480-52q-19 0-35.098-7.348Q428.805-66.696 416-79L79-416q-12.304-12.805-19.652-28.902Q52-461 52-480t7.196-34.976Q66.39-530.951 79-544l337-337q12.805-13.696 28.902-20.348Q461-908 480-908t34.976 6.804Q530.951-894.391 544-881l337 337q13.391 13.049 20.196 29.024Q908-499 908-480t-6.652 35.098Q894.696-428.805 881-416L544-79q-13.049 12.609-29.024 19.804Q499-52 480-52Zm-.053-385q16.028 0 28.04-11.775Q520-460.55 520-476v-158q0-16.475-11.752-28.237Q496.495-674 480.035-674 464-674 452.5-662.237 441-650.475 441-634v158q0 15.45 11.46 27.225Q463.92-437 479.947-437ZM480-308q16.975 0 28.487-11.093Q520-330.186 520-346.789q0-16.604-11.513-28.407Q496.975-387 480-387q-16.975 0-27.987 11.883Q441-363.235 441-346.93t11.013 27.618Q463.025-308 480-308Z" fill="#634E00" /></svg>