<svg xmlns="http://www.w3.org/2000/svg" height="48" viewBox="0 -960 960 960" width="48"><path d="M190-99q-37.45 0-64.225-26.775Q99-152.55 99-190v-580q0-37.863 26.775-64.931Q152.55-862 190-862h413q17.756 0 34.878 7.5T668-834l166 166q13 13 20.5 30.122T862-603v413q0 37.45-27.069 64.225Q807.863-99 770-99H190Zm398-671v136q0 20.75 12.625 33.375T634-588h136L588-770Zm69.202 470q12.148 0 20.973-9.588T687-332.175q0-12-9.037-20.913Q668.925-362 657-362H303.798q-13.148 0-21.973 9.088T273-331.825q0 13 9.537 22.413Q292.075-300 305-300h352.202ZM472-592q11.925 0 21.463-9.588Q503-611.176 503-624.175q0-12-9.537-21.413Q483.925-655 472-655H305q-12.925 0-22.463 9.588Q273-635.824 273-623.825q0 13 9.537 22.413Q292.075-592 305-592h167Zm184.202 146q12.148 0 21.473-9.588T687-477.175q0-12-9.537-21.913Q667.925-509 656-509H304.798q-13.148 0-22.473 10.088T273-476.825q0 12 9.537 21.413Q292.075-446 305-446h351.202Z" fill="#E1E5EE" /></svg>