<svg width="192" height="32" viewBox="0 0 192 32" fill="none" xmlns="http://www.w3.org/2000/svg">
<path d="M11.712 24.576C9.64267 24.576 7.76533 24.16 6.08 23.328C4.416 22.4747 3.09333 21.216 2.112 19.552C1.13067 17.888 0.64 15.8507 0.64 13.44C0.64 11.6053 0.938667 9.99467 1.536 8.608C2.13333 7.22133 2.944 6.05867 3.968 5.12C5.01333 4.18133 6.208 3.47733 7.552 3.008C8.91733 2.53867 10.3573 2.304 11.872 2.304C13.088 2.304 14.208 2.44267 15.232 2.72C16.256 2.99733 17.216 3.38133 18.112 3.872L18.24 7.808H17.92L16.32 5.248C16.1067 4.84267 15.872 4.48 15.616 4.16C15.36 3.81867 15.04 3.56267 14.656 3.392C14.336 3.24267 14.016 3.136 13.696 3.072C13.3973 2.98667 13.0133 2.944 12.544 2.944C11.3067 2.944 10.176 3.27467 9.152 3.936C8.14933 4.59733 7.33867 5.696 6.72 7.232C6.12267 8.74667 5.824 10.8267 5.824 13.472C5.824 16.096 6.112 18.176 6.688 19.712C7.264 21.2267 8.04267 22.3147 9.024 22.976C10.0267 23.616 11.1467 23.936 12.384 23.936C13.0667 23.936 13.6107 23.8933 14.016 23.808C14.4213 23.7013 14.8267 23.552 15.232 23.36C15.6373 23.1893 15.9467 22.944 16.16 22.624C16.3733 22.2827 16.5653 21.92 16.736 21.536L18.144 18.4H18.464L18.368 22.976C17.472 23.4453 16.4693 23.8293 15.36 24.128C14.2507 24.4267 13.0347 24.576 11.712 24.576ZM11.04 26.72L11.456 23.936H12.128L11.936 25.504C13.1947 25.6533 14.1333 25.9733 14.752 26.464C15.3707 26.9547 15.68 27.5627 15.68 28.288C15.68 29.0773 15.3387 29.7387 14.656 30.272C13.9733 30.8053 12.9387 31.072 11.552 31.072C11.04 31.072 10.592 31.0293 10.208 30.944C9.84533 30.88 9.49333 30.7947 9.152 30.688L9.28 30.144C9.89867 30.336 10.464 30.432 10.976 30.432C11.5733 30.432 12.032 30.2507 12.352 29.888C12.6933 29.5467 12.864 29.0667 12.864 28.448C12.864 27.936 12.6933 27.5413 12.352 27.264C12.032 26.9867 11.5947 26.8053 11.04 26.72ZM24.5933 24.48C23.3559 24.48 22.3106 24.128 21.4573 23.424C20.6253 22.72 20.2093 21.7067 20.2093 20.384C20.2093 19.3813 20.7213 18.464 21.7453 17.632C22.7693 16.7787 24.3799 16.1387 26.5773 15.712C26.9186 15.648 27.3026 15.584 27.7292 15.52C28.1559 15.4347 28.6039 15.3493 29.0733 15.264V12.736C29.0733 11.2853 28.8919 10.272 28.5293 9.696C28.1879 9.09867 27.6439 8.8 26.8973 8.8C26.3853 8.8 25.9799 8.97067 25.6813 9.312C25.3826 9.632 25.1906 10.1973 25.1053 11.008L25.0413 11.36C24.9986 12.2773 24.7746 12.9493 24.3693 13.376C23.9639 13.8027 23.4626 14.016 22.8653 14.016C22.3106 14.016 21.8519 13.8453 21.4893 13.504C21.1266 13.1627 20.9453 12.704 20.9453 12.128C20.9453 11.2533 21.2439 10.5173 21.8413 9.92C22.4599 9.32267 23.2706 8.87467 24.2733 8.576C25.2759 8.27733 26.3639 8.128 27.5373 8.128C29.4359 8.128 30.8973 8.59733 31.9213 9.536C32.9666 10.4533 33.4893 11.9573 33.4893 14.048V21.12C33.4893 22.08 33.9373 22.56 34.8333 22.56H35.5373L35.8253 22.816C35.4199 23.328 34.9719 23.7227 34.4813 24C34.0119 24.2773 33.3399 24.416 32.4653 24.416C31.5266 24.416 30.7799 24.2027 30.2253 23.776C29.6919 23.328 29.3399 22.7413 29.1693 22.016C28.5293 22.6987 27.8679 23.2853 27.1853 23.776C26.5239 24.2453 25.6599 24.48 24.5933 24.48ZM26.5453 22.528C26.9719 22.528 27.3666 22.432 27.7292 22.24C28.1133 22.0267 28.5613 21.7067 29.0733 21.28V15.904C28.8599 15.9467 28.6466 15.9893 28.4333 16.032C28.2199 16.0747 27.9746 16.1173 27.6973 16.16C26.7159 16.416 25.9266 16.8533 25.3293 17.472C24.7533 18.0693 24.4653 18.88 24.4653 19.904C24.4653 20.7787 24.6679 21.44 25.0733 21.888C25.4786 22.3147 25.9693 22.528 26.5453 22.528ZM43.241 18.464C41.769 18.464 40.521 18.2187 39.497 17.728V18.816C39.497 19.4773 39.8277 19.872 40.489 20L46.505 21.12C47.5077 21.312 48.4143 21.568 49.225 21.888C50.0357 22.1867 50.6863 22.624 51.177 23.2C51.6677 23.7547 51.913 24.5227 51.913 25.504C51.913 26.5493 51.5717 27.5093 50.889 28.384C50.2063 29.28 49.193 29.9947 47.849 30.528C46.5263 31.0827 44.873 31.36 42.889 31.36C41.1823 31.36 39.8277 31.1787 38.825 30.816C37.8223 30.4747 37.1077 30.0267 36.681 29.472C36.2757 28.9173 36.073 28.3307 36.073 27.712C36.073 26.944 36.329 26.1653 36.841 25.376C37.3743 24.608 38.025 23.9893 38.793 23.52C38.1317 23.264 37.6517 22.9333 37.353 22.528C37.0543 22.1227 36.905 21.6853 36.905 21.216C36.905 20.7893 37.0117 20.3947 37.225 20.032C37.4597 19.648 37.737 19.264 38.057 18.88L39.113 17.536C37.5557 16.64 36.777 15.232 36.777 13.312C36.777 11.776 37.321 10.528 38.409 9.568C39.5183 8.608 41.1397 8.128 43.273 8.128C44.361 8.128 45.3103 8.256 46.121 8.512C46.953 8.768 47.6357 9.13067 48.169 9.6C48.8517 9.49333 49.4917 9.32267 50.089 9.088C50.7077 8.832 51.2623 8.49067 51.753 8.064L52.201 8.384V10.016H48.585C49.353 10.8693 49.737 11.968 49.737 13.312C49.737 14.8053 49.1823 16.0427 48.073 17.024C46.985 17.984 45.3743 18.464 43.241 18.464ZM43.209 17.824C44.0623 17.824 44.681 17.472 45.065 16.768C45.4703 16.064 45.673 14.8907 45.673 13.248C45.673 11.6053 45.4703 10.4533 45.065 9.792C44.681 9.10933 44.0837 8.768 43.273 8.768C42.4837 8.768 41.8863 9.12 41.481 9.824C41.0757 10.5067 40.873 11.6693 40.873 13.312C40.873 14.9547 41.0543 16.1173 41.417 16.8C41.801 17.4827 42.3983 17.824 43.209 17.824ZM38.441 26.688C38.441 27.9467 38.825 28.896 39.593 29.536C40.3823 30.176 41.6197 30.496 43.305 30.496C45.0757 30.496 46.409 30.208 47.305 29.632C48.201 29.056 48.649 28.2453 48.649 27.2C48.649 26.6027 48.425 26.1227 47.977 25.76C47.5503 25.3973 46.8143 25.12 45.769 24.928L39.977 23.84C39.8063 23.7973 39.6357 23.7547 39.465 23.712C39.1663 24.1387 38.921 24.6187 38.729 25.152C38.537 25.7067 38.441 26.2187 38.441 26.688ZM43.785 5.824C42.697 5.824 41.8117 5.568 41.129 5.056C40.4463 4.544 39.9343 3.904 39.593 3.136C39.2517 2.34667 39.049 1.57867 38.985 0.831999L39.593 0.608C39.9557 1.35467 40.4677 1.99467 41.129 2.528C41.8117 3.04 42.697 3.296 43.785 3.296C44.873 3.296 45.7477 3.04 46.409 2.528C47.0917 1.99467 47.6143 1.35467 47.977 0.608L48.585 0.831999C48.521 1.57867 48.3183 2.34667 47.977 3.136C47.6357 3.904 47.1237 4.544 46.441 5.056C45.7797 5.568 44.8943 5.824 43.785 5.824ZM57.4058 24.48C56.1684 24.48 55.1231 24.128 54.2698 23.424C53.4378 22.72 53.0218 21.7067 53.0218 20.384C53.0218 19.3813 53.5338 18.464 54.5578 17.632C55.5818 16.7787 57.1924 16.1387 59.3898 15.712C59.7311 15.648 60.1151 15.584 60.5417 15.52C60.9684 15.4347 61.4164 15.3493 61.8858 15.264V12.736C61.8858 11.2853 61.7044 10.272 61.3418 9.696C61.0004 9.09867 60.4564 8.8 59.7098 8.8C59.1978 8.8 58.7924 8.97067 58.4938 9.312C58.1951 9.632 58.0031 10.1973 57.9178 11.008L57.8538 11.36C57.8111 12.2773 57.5871 12.9493 57.1818 13.376C56.7764 13.8027 56.2751 14.016 55.6778 14.016C55.1231 14.016 54.6644 13.8453 54.3018 13.504C53.9391 13.1627 53.7578 12.704 53.7578 12.128C53.7578 11.2533 54.0564 10.5173 54.6538 9.92C55.2724 9.32267 56.0831 8.87467 57.0858 8.576C58.0884 8.27733 59.1764 8.128 60.3498 8.128C62.2484 8.128 63.7098 8.59733 64.7338 9.536C65.7791 10.4533 66.3018 11.9573 66.3018 14.048V21.12C66.3018 22.08 66.7498 22.56 67.6458 22.56H68.3498L68.6378 22.816C68.2324 23.328 67.7844 23.7227 67.2938 24C66.8244 24.2773 66.1524 24.416 65.2778 24.416C64.3391 24.416 63.5924 24.2027 63.0378 23.776C62.5044 23.328 62.1524 22.7413 61.9818 22.016C61.3418 22.6987 60.6804 23.2853 59.9978 23.776C59.3364 24.2453 58.4724 24.48 57.4058 24.48ZM59.3578 22.528C59.7844 22.528 60.1791 22.432 60.5417 22.24C60.9258 22.0267 61.3738 21.7067 61.8858 21.28V15.904C61.6724 15.9467 61.4591 15.9893 61.2458 16.032C61.0324 16.0747 60.7871 16.1173 60.5098 16.16C59.5284 16.416 58.7391 16.8533 58.1418 17.472C57.5658 18.0693 57.2778 18.88 57.2778 19.904C57.2778 20.7787 57.4804 21.44 57.8858 21.888C58.2911 22.3147 58.7818 22.528 59.3578 22.528ZM69.2338 24V23.68L69.6818 23.552C70.4284 23.3387 70.8018 22.816 70.8018 21.984V11.968C70.8018 11.4987 70.7271 11.1573 70.5778 10.944C70.4284 10.7093 70.1404 10.5493 69.7138 10.464L69.2338 10.336V10.016L74.7058 8.16L75.0258 8.48L75.2818 10.4C76.0284 9.73867 76.8711 9.19467 77.8098 8.768C78.7484 8.34133 79.6764 8.128 80.5938 8.128C82.0018 8.128 83.0791 8.512 83.8258 9.28C84.5938 10.048 84.9778 11.2213 84.9778 12.8V22.016C84.9778 22.848 85.3831 23.3707 86.1938 23.584L86.4818 23.68V24H78.9298V23.68L79.3458 23.552C80.0924 23.3173 80.4658 22.7947 80.4658 21.984V11.776C80.4658 10.4107 79.7831 9.728 78.4178 9.728C77.4791 9.728 76.4551 10.1973 75.3458 11.136V22.016C75.3458 22.848 75.7191 23.3707 76.4658 23.584L76.7538 23.68V24H69.2338ZM101.647 24.576C100.473 24.576 99.2785 24.4267 98.0625 24.128C96.8465 23.8507 95.8332 23.4773 95.0225 23.008L95.1825 18.656H95.5025L96.4945 20.736C96.7932 21.3333 97.1132 21.8667 97.4545 22.336C97.7958 22.784 98.2652 23.136 98.8625 23.392C99.2892 23.6053 99.6945 23.7547 100.079 23.84C100.484 23.904 100.932 23.936 101.423 23.936C102.724 23.936 103.748 23.584 104.495 22.88C105.263 22.176 105.647 21.2693 105.647 20.16C105.647 19.1147 105.391 18.304 104.879 17.728C104.367 17.1307 103.545 16.5547 102.415 16L101.103 15.424C99.2678 14.6133 97.8278 13.6853 96.7825 12.64C95.7585 11.5733 95.2465 10.1653 95.2465 8.416C95.2465 7.15733 95.5665 6.06933 96.2065 5.152C96.8678 4.23467 97.7745 3.53067 98.9265 3.04C100.1 2.54933 101.465 2.304 103.023 2.304C104.153 2.304 105.22 2.45333 106.223 2.752C107.247 3.05067 108.132 3.456 108.879 3.968L108.687 7.808H108.367L107.055 5.408C106.692 4.66133 106.329 4.13866 105.967 3.84C105.604 3.52 105.188 3.296 104.719 3.168C104.441 3.08267 104.185 3.02933 103.951 3.008C103.716 2.96533 103.417 2.944 103.055 2.944C101.967 2.944 101.049 3.264 100.303 3.904C99.5558 4.52267 99.1825 5.36533 99.1825 6.432C99.1825 7.52 99.4705 8.39467 100.047 9.056C100.623 9.696 101.465 10.272 102.575 10.784L104.047 11.424C106.095 12.32 107.567 13.28 108.463 14.304C109.359 15.3067 109.807 16.608 109.807 18.208C109.807 20.0853 109.092 21.6213 107.663 22.816C106.255 23.9893 104.249 24.576 101.647 24.576ZM119.422 8.128C120.809 8.128 121.993 8.416 122.974 8.992C123.955 9.54667 124.702 10.3147 125.214 11.296C125.747 12.256 126.014 13.3547 126.014 14.592C126.014 14.8267 126.003 15.072 125.982 15.328C125.961 15.5627 125.918 15.776 125.854 15.968H116.318C116.339 18.272 116.745 19.936 117.534 20.96C118.345 21.9627 119.539 22.464 121.118 22.464C122.185 22.464 123.049 22.2933 123.71 21.952C124.371 21.6107 124.99 21.1093 125.566 20.448L125.886 20.736C125.225 21.9093 124.339 22.8267 123.23 23.488C122.142 24.1493 120.83 24.48 119.294 24.48C117.779 24.48 116.435 24.16 115.262 23.52C114.089 22.8587 113.171 21.92 112.51 20.704C111.849 19.488 111.518 18.0373 111.518 16.352C111.518 14.6027 111.902 13.12 112.67 11.904C113.438 10.6667 114.419 9.728 115.614 9.088C116.83 8.448 118.099 8.128 119.422 8.128ZM119.326 8.768C118.707 8.768 118.174 8.96 117.726 9.344C117.299 9.70667 116.958 10.368 116.702 11.328C116.467 12.2667 116.339 13.6 116.318 15.328H121.79C122.003 13.0027 121.918 11.328 121.534 10.304C121.15 9.28 120.414 8.768 119.326 8.768ZM130.428 31.68C129.574 31.68 128.892 31.4667 128.38 31.04C127.889 30.6133 127.644 30.0693 127.644 29.408C127.644 28.8107 127.857 28.3307 128.284 27.968C128.71 27.6053 129.19 27.424 129.724 27.424C130.257 27.424 130.705 27.5307 131.068 27.744C131.43 27.9787 131.75 28.3093 132.028 28.736L132.252 28.992C132.721 29.632 133.19 29.6213 133.66 28.96C133.852 28.64 134.065 28.2133 134.3 27.68C134.556 27.168 134.844 26.4747 135.164 25.6L128.956 10.752C128.806 10.3467 128.646 10.0267 128.476 9.792C128.305 9.536 128.028 9.32267 127.644 9.152L127.068 8.928V8.608H135.036V8.896L134.396 9.152C133.926 9.30133 133.681 9.54667 133.66 9.888C133.66 10.208 133.745 10.6133 133.916 11.104L137.244 19.744L140.412 11.008C140.582 10.5173 140.646 10.112 140.604 9.792C140.561 9.45067 140.294 9.216 139.804 9.088L139.132 8.928V8.608H143.58V8.928L142.876 9.152C142.385 9.30133 142.044 9.51467 141.852 9.792C141.66 10.0693 141.478 10.4533 141.308 10.944L136.156 24.992C135.324 27.232 134.492 28.9067 133.66 30.016C132.828 31.1253 131.75 31.68 130.428 31.68ZM144.64 24V23.68L145.12 23.552C145.547 23.424 145.835 23.232 145.984 22.976C146.155 22.72 146.24 22.3893 146.24 21.984V11.968C146.24 11.4987 146.155 11.1573 145.984 10.944C145.835 10.7093 145.547 10.5493 145.12 10.464L144.64 10.336V10.016L150.144 8.16L150.464 8.48L150.752 11.232V11.488C151.051 10.8907 151.435 10.3467 151.904 9.856C152.395 9.344 152.928 8.928 153.504 8.608C154.101 8.288 154.688 8.128 155.264 8.128C156.075 8.128 156.693 8.352 157.12 8.8C157.547 9.248 157.76 9.81333 157.76 10.496C157.76 11.2213 157.547 11.7867 157.12 12.192C156.715 12.576 156.224 12.768 155.648 12.768C154.752 12.768 153.963 12.32 153.28 11.424L153.216 11.36C153.003 11.0613 152.757 10.9013 152.48 10.88C152.203 10.8373 151.947 10.9653 151.712 11.264C151.499 11.456 151.317 11.6907 151.168 11.968C151.04 12.224 150.912 12.5227 150.784 12.864V21.792C150.784 22.6453 151.157 23.1787 151.904 23.392L152.928 23.68V24H144.64ZM166.297 8.128C167.684 8.128 168.868 8.416 169.849 8.992C170.83 9.54667 171.577 10.3147 172.089 11.296C172.622 12.256 172.889 13.3547 172.889 14.592C172.889 14.8267 172.878 15.072 172.857 15.328C172.836 15.5627 172.793 15.776 172.729 15.968H163.193C163.214 18.272 163.62 19.936 164.409 20.96C165.22 21.9627 166.414 22.464 167.993 22.464C169.06 22.464 169.924 22.2933 170.585 21.952C171.246 21.6107 171.865 21.1093 172.441 20.448L172.761 20.736C172.1 21.9093 171.214 22.8267 170.105 23.488C169.017 24.1493 167.705 24.48 166.169 24.48C164.654 24.48 163.31 24.16 162.137 23.52C160.964 22.8587 160.046 21.92 159.385 20.704C158.724 19.488 158.393 18.0373 158.393 16.352C158.393 14.6027 158.777 13.12 159.545 11.904C160.313 10.6667 161.294 9.728 162.489 9.088C163.705 8.448 164.974 8.128 166.297 8.128ZM166.201 8.768C165.582 8.768 165.049 8.96 164.601 9.344C164.174 9.70667 163.833 10.368 163.577 11.328C163.342 12.2667 163.214 13.6 163.193 15.328H168.665C168.878 13.0027 168.793 11.328 168.409 10.304C168.025 9.28 167.289 8.768 166.201 8.768ZM174.048 24V23.68L174.528 23.52C175.253 23.2853 175.616 22.7627 175.616 21.952V4.832C175.616 4.40533 175.53 4.08533 175.36 3.872C175.189 3.65867 174.89 3.488 174.464 3.36L174.048 3.264V2.944L179.904 1.568L180.288 1.856L180.192 6.336V21.952C180.192 22.8053 180.544 23.3387 181.248 23.552L181.696 23.68V24H174.048ZM185.92 24L180.224 16L186.144 10.528C186.421 10.272 186.581 10.0053 186.624 9.728C186.688 9.42933 186.506 9.216 186.08 9.088L185.536 8.928V8.608H190.304V8.928L189.344 9.184C188.874 9.33333 188.49 9.51467 188.192 9.728C187.914 9.92 187.573 10.1973 187.168 10.56L183.584 13.92L189.312 21.888C189.653 22.3573 189.973 22.72 190.272 22.976C190.57 23.232 190.954 23.4453 191.424 23.616L191.552 23.68V24H185.92Z" fill="#E8E8E3"/>
</svg>
