<svg width="98" height="64" viewBox="0 0 98 64" fill="none" xmlns="http://www.w3.org/2000/svg">
<path d="M11.712 24.576C9.64267 24.576 7.76533 24.16 6.08 23.328C4.416 22.4747 3.09333 21.216 2.112 19.552C1.13067 17.888 0.64 15.8507 0.64 13.44C0.64 11.6053 0.938667 9.99467 1.536 8.608C2.13333 7.22133 2.944 6.05867 3.968 5.12C5.01333 4.18133 6.208 3.47733 7.552 3.008C8.91733 2.53867 10.3573 2.304 11.872 2.304C13.088 2.304 14.208 2.44267 15.232 2.72C16.256 2.99733 17.216 3.38133 18.112 3.872L18.24 7.808H17.92L16.32 5.248C16.1067 4.84267 15.872 4.48 15.616 4.16C15.36 3.81867 15.04 3.56267 14.656 3.392C14.336 3.24267 14.016 3.136 13.696 3.072C13.3973 2.98667 13.0133 2.944 12.544 2.944C11.3067 2.944 10.176 3.27467 9.152 3.936C8.14933 4.59733 7.33867 5.696 6.72 7.232C6.12267 8.74667 5.824 10.8267 5.824 13.472C5.824 16.096 6.112 18.176 6.688 19.712C7.264 21.2267 8.04267 22.3147 9.024 22.976C10.0267 23.616 11.1467 23.936 12.384 23.936C13.0667 23.936 13.6107 23.8933 14.016 23.808C14.4213 23.7013 14.8267 23.552 15.232 23.36C15.6373 23.1893 15.9467 22.944 16.16 22.624C16.3733 22.2827 16.5653 21.92 16.736 21.536L18.144 18.4H18.464L18.368 22.976C17.472 23.4453 16.4693 23.8293 15.36 24.128C14.2507 24.4267 13.0347 24.576 11.712 24.576ZM11.04 26.72L11.456 23.936H12.128L11.936 25.504C13.1947 25.6533 14.1333 25.9733 14.752 26.464C15.3707 26.9547 15.68 27.5627 15.68 28.288C15.68 29.0773 15.3387 29.7387 14.656 30.272C13.9733 30.8053 12.9387 31.072 11.552 31.072C11.04 31.072 10.592 31.0293 10.208 30.944C9.84533 30.88 9.49333 30.7947 9.152 30.688L9.28 30.144C9.89867 30.336 10.464 30.432 10.976 30.432C11.5733 30.432 12.032 30.2507 12.352 29.888C12.6933 29.5467 12.864 29.0667 12.864 28.448C12.864 27.936 12.6933 27.5413 12.352 27.264C12.032 26.9867 11.5947 26.8053 11.04 26.72ZM24.5933 24.48C23.3559 24.48 22.3106 24.128 21.4573 23.424C20.6253 22.72 20.2093 21.7067 20.2093 20.384C20.2093 19.3813 20.7213 18.464 21.7453 17.632C22.7693 16.7787 24.3799 16.1387 26.5773 15.712C26.9186 15.648 27.3026 15.584 27.7292 15.52C28.1559 15.4347 28.6039 15.3493 29.0733 15.264V12.736C29.0733 11.2853 28.8919 10.272 28.5293 9.696C28.1879 9.09867 27.6439 8.8 26.8973 8.8C26.3853 8.8 25.9799 8.97067 25.6813 9.312C25.3826 9.632 25.1906 10.1973 25.1053 11.008L25.0413 11.36C24.9986 12.2773 24.7746 12.9493 24.3693 13.376C23.9639 13.8027 23.4626 14.016 22.8653 14.016C22.3106 14.016 21.8519 13.8453 21.4893 13.504C21.1266 13.1627 20.9453 12.704 20.9453 12.128C20.9453 11.2533 21.2439 10.5173 21.8413 9.92C22.4599 9.32267 23.2706 8.87467 24.2733 8.576C25.2759 8.27733 26.3639 8.128 27.5373 8.128C29.4359 8.128 30.8973 8.59733 31.9213 9.536C32.9666 10.4533 33.4893 11.9573 33.4893 14.048V21.12C33.4893 22.08 33.9373 22.56 34.8333 22.56H35.5373L35.8253 22.816C35.4199 23.328 34.9719 23.7227 34.4813 24C34.0119 24.2773 33.3399 24.416 32.4653 24.416C31.5266 24.416 30.7799 24.2027 30.2253 23.776C29.6919 23.328 29.3399 22.7413 29.1693 22.016C28.5293 22.6987 27.8679 23.2853 27.1853 23.776C26.5239 24.2453 25.6599 24.48 24.5933 24.48ZM26.5453 22.528C26.9719 22.528 27.3666 22.432 27.7292 22.24C28.1133 22.0267 28.5613 21.7067 29.0733 21.28V15.904C28.8599 15.9467 28.6466 15.9893 28.4333 16.032C28.2199 16.0747 27.9746 16.1173 27.6973 16.16C26.7159 16.416 25.9266 16.8533 25.3293 17.472C24.7533 18.0693 24.4653 18.88 24.4653 19.904C24.4653 20.7787 24.6679 21.44 25.0733 21.888C25.4786 22.3147 25.9693 22.528 26.5453 22.528ZM43.241 18.464C41.769 18.464 40.521 18.2187 39.497 17.728V18.816C39.497 19.4773 39.8277 19.872 40.489 20L46.505 21.12C47.5077 21.312 48.4143 21.568 49.225 21.888C50.0357 22.1867 50.6863 22.624 51.177 23.2C51.6677 23.7547 51.913 24.5227 51.913 25.504C51.913 26.5493 51.5717 27.5093 50.889 28.384C50.2063 29.28 49.193 29.9947 47.849 30.528C46.5263 31.0827 44.873 31.36 42.889 31.36C41.1823 31.36 39.8277 31.1787 38.825 30.816C37.8223 30.4747 37.1077 30.0267 36.681 29.472C36.2757 28.9173 36.073 28.3307 36.073 27.712C36.073 26.944 36.329 26.1653 36.841 25.376C37.3743 24.608 38.025 23.9893 38.793 23.52C38.1317 23.264 37.6517 22.9333 37.353 22.528C37.0543 22.1227 36.905 21.6853 36.905 21.216C36.905 20.7893 37.0117 20.3947 37.225 20.032C37.4597 19.648 37.737 19.264 38.057 18.88L39.113 17.536C37.5557 16.64 36.777 15.232 36.777 13.312C36.777 11.776 37.321 10.528 38.409 9.568C39.5183 8.608 41.1397 8.128 43.273 8.128C44.361 8.128 45.3103 8.256 46.121 8.512C46.953 8.768 47.6357 9.13067 48.169 9.6C48.8517 9.49333 49.4917 9.32267 50.089 9.088C50.7077 8.832 51.2623 8.49067 51.753 8.064L52.201 8.384V10.016H48.585C49.353 10.8693 49.737 11.968 49.737 13.312C49.737 14.8053 49.1823 16.0427 48.073 17.024C46.985 17.984 45.3743 18.464 43.241 18.464ZM43.209 17.824C44.0623 17.824 44.681 17.472 45.065 16.768C45.4703 16.064 45.673 14.8907 45.673 13.248C45.673 11.6053 45.4703 10.4533 45.065 9.792C44.681 9.10933 44.0837 8.768 43.273 8.768C42.4837 8.768 41.8863 9.12 41.481 9.824C41.0757 10.5067 40.873 11.6693 40.873 13.312C40.873 14.9547 41.0543 16.1173 41.417 16.8C41.801 17.4827 42.3983 17.824 43.209 17.824ZM38.441 26.688C38.441 27.9467 38.825 28.896 39.593 29.536C40.3823 30.176 41.6197 30.496 43.305 30.496C45.0757 30.496 46.409 30.208 47.305 29.632C48.201 29.056 48.649 28.2453 48.649 27.2C48.649 26.6027 48.425 26.1227 47.977 25.76C47.5503 25.3973 46.8143 25.12 45.769 24.928L39.977 23.84C39.8063 23.7973 39.6357 23.7547 39.465 23.712C39.1663 24.1387 38.921 24.6187 38.729 25.152C38.537 25.7067 38.441 26.2187 38.441 26.688ZM43.785 5.824C42.697 5.824 41.8117 5.568 41.129 5.056C40.4463 4.544 39.9343 3.904 39.593 3.136C39.2517 2.34667 39.049 1.57867 38.985 0.831999L39.593 0.608C39.9557 1.35467 40.4677 1.99467 41.129 2.528C41.8117 3.04 42.697 3.296 43.785 3.296C44.873 3.296 45.7477 3.04 46.409 2.528C47.0917 1.99467 47.6143 1.35467 47.977 0.608L48.585 0.831999C48.521 1.57867 48.3183 2.34667 47.977 3.136C47.6357 3.904 47.1237 4.544 46.441 5.056C45.7797 5.568 44.8943 5.824 43.785 5.824ZM57.4058 24.48C56.1684 24.48 55.1231 24.128 54.2698 23.424C53.4378 22.72 53.0218 21.7067 53.0218 20.384C53.0218 19.3813 53.5338 18.464 54.5578 17.632C55.5818 16.7787 57.1924 16.1387 59.3898 15.712C59.7311 15.648 60.1151 15.584 60.5417 15.52C60.9684 15.4347 61.4164 15.3493 61.8858 15.264V12.736C61.8858 11.2853 61.7044 10.272 61.3418 9.696C61.0004 9.09867 60.4564 8.8 59.7098 8.8C59.1978 8.8 58.7924 8.97067 58.4938 9.312C58.1951 9.632 58.0031 10.1973 57.9178 11.008L57.8538 11.36C57.8111 12.2773 57.5871 12.9493 57.1818 13.376C56.7764 13.8027 56.2751 14.016 55.6778 14.016C55.1231 14.016 54.6644 13.8453 54.3018 13.504C53.9391 13.1627 53.7578 12.704 53.7578 12.128C53.7578 11.2533 54.0564 10.5173 54.6538 9.92C55.2724 9.32267 56.0831 8.87467 57.0858 8.576C58.0884 8.27733 59.1764 8.128 60.3498 8.128C62.2484 8.128 63.7098 8.59733 64.7338 9.536C65.7791 10.4533 66.3018 11.9573 66.3018 14.048V21.12C66.3018 22.08 66.7498 22.56 67.6458 22.56H68.3498L68.6378 22.816C68.2324 23.328 67.7844 23.7227 67.2938 24C66.8244 24.2773 66.1524 24.416 65.2778 24.416C64.3391 24.416 63.5924 24.2027 63.0378 23.776C62.5044 23.328 62.1524 22.7413 61.9818 22.016C61.3418 22.6987 60.6804 23.2853 59.9978 23.776C59.3364 24.2453 58.4724 24.48 57.4058 24.48ZM59.3578 22.528C59.7844 22.528 60.1791 22.432 60.5417 22.24C60.9258 22.0267 61.3738 21.7067 61.8858 21.28V15.904C61.6724 15.9467 61.4591 15.9893 61.2458 16.032C61.0324 16.0747 60.7871 16.1173 60.5098 16.16C59.5284 16.416 58.7391 16.8533 58.1418 17.472C57.5658 18.0693 57.2778 18.88 57.2778 19.904C57.2778 20.7787 57.4804 21.44 57.8858 21.888C58.2911 22.3147 58.7818 22.528 59.3578 22.528ZM69.2338 24V23.68L69.6818 23.552C70.4284 23.3387 70.8018 22.816 70.8018 21.984V11.968C70.8018 11.4987 70.7271 11.1573 70.5778 10.944C70.4284 10.7093 70.1404 10.5493 69.7138 10.464L69.2338 10.336V10.016L74.7058 8.16L75.0258 8.48L75.2818 10.4C76.0284 9.73867 76.8711 9.19467 77.8098 8.768C78.7484 8.34133 79.6764 8.128 80.5938 8.128C82.0018 8.128 83.0791 8.512 83.8258 9.28C84.5938 10.048 84.9778 11.2213 84.9778 12.8V22.016C84.9778 22.848 85.3831 23.3707 86.1938 23.584L86.4818 23.68V24H78.9298V23.68L79.3458 23.552C80.0924 23.3173 80.4658 22.7947 80.4658 21.984V11.776C80.4658 10.4107 79.7831 9.728 78.4178 9.728C77.4791 9.728 76.4551 10.1973 75.3458 11.136V22.016C75.3458 22.848 75.7191 23.3707 76.4658 23.584L76.7538 23.68V24H69.2338ZM7.584 56.576C6.41067 56.576 5.216 56.4267 4 56.128C2.784 55.8507 1.77067 55.4773 0.96 55.008L1.12 50.656H1.44L2.432 52.736C2.73067 53.3333 3.05067 53.8667 3.392 54.336C3.73333 54.784 4.20267 55.136 4.8 55.392C5.22667 55.6053 5.632 55.7547 6.016 55.84C6.42133 55.904 6.86933 55.936 7.36 55.936C8.66133 55.936 9.68533 55.584 10.432 54.88C11.2 54.176 11.584 53.2693 11.584 52.16C11.584 51.1147 11.328 50.304 10.816 49.728C10.304 49.1307 9.48267 48.5547 8.352 48L7.04 47.424C5.20533 46.6133 3.76533 45.6853 2.72 44.64C1.696 43.5733 1.184 42.1653 1.184 40.416C1.184 39.1573 1.504 38.0693 2.144 37.152C2.80533 36.2347 3.712 35.5307 4.864 35.04C6.03733 34.5493 7.40267 34.304 8.96 34.304C10.0907 34.304 11.1573 34.4533 12.16 34.752C13.184 35.0507 14.0693 35.456 14.816 35.968L14.624 39.808H14.304L12.992 37.408C12.6293 36.6613 12.2667 36.1387 11.904 35.84C11.5413 35.52 11.1253 35.296 10.656 35.168C10.3787 35.0827 10.1227 35.0293 9.888 35.008C9.65333 34.9653 9.35467 34.944 8.992 34.944C7.904 34.944 6.98667 35.264 6.24 35.904C5.49333 36.5227 5.12 37.3653 5.12 38.432C5.12 39.52 5.408 40.3947 5.984 41.056C6.56 41.696 7.40267 42.272 8.512 42.784L9.984 43.424C12.032 44.32 13.504 45.28 14.4 46.304C15.296 47.3067 15.744 48.608 15.744 50.208C15.744 52.0853 15.0293 53.6213 13.6 54.816C12.192 55.9893 10.1867 56.576 7.584 56.576ZM25.3595 40.128C26.7462 40.128 27.9302 40.416 28.9115 40.992C29.8928 41.5467 30.6395 42.3147 31.1515 43.296C31.6848 44.256 31.9515 45.3547 31.9515 46.592C31.9515 46.8267 31.9408 47.072 31.9195 47.328C31.8982 47.5627 31.8555 47.776 31.7915 47.968H22.2555C22.2768 50.272 22.6822 51.936 23.4715 52.96C24.2822 53.9627 25.4768 54.464 27.0555 54.464C28.1222 54.464 28.9862 54.2933 29.6475 53.952C30.3088 53.6107 30.9275 53.1093 31.5035 52.448L31.8235 52.736C31.1622 53.9093 30.2768 54.8267 29.1675 55.488C28.0795 56.1493 26.7675 56.48 25.2315 56.48C23.7168 56.48 22.3728 56.16 21.1995 55.52C20.0262 54.8587 19.1088 53.92 18.4475 52.704C17.7862 51.488 17.4555 50.0373 17.4555 48.352C17.4555 46.6027 17.8395 45.12 18.6075 43.904C19.3755 42.6667 20.3568 41.728 21.5515 41.088C22.7675 40.448 24.0368 40.128 25.3595 40.128ZM25.2635 40.768C24.6448 40.768 24.1115 40.96 23.6635 41.344C23.2368 41.7067 22.8955 42.368 22.6395 43.328C22.4048 44.2667 22.2768 45.6 22.2555 47.328H27.7275C27.9408 45.0027 27.8555 43.328 27.4715 42.304C27.0875 41.28 26.3515 40.768 25.2635 40.768ZM36.3653 63.68C35.5119 63.68 34.8293 63.4667 34.3173 63.04C33.8266 62.6133 33.5813 62.0693 33.5813 61.408C33.5813 60.8107 33.7946 60.3307 34.2213 59.968C34.6479 59.6053 35.1279 59.424 35.6613 59.424C36.1946 59.424 36.6426 59.5307 37.0052 59.744C37.3679 59.9787 37.6879 60.3093 37.9653 60.736L38.1893 60.992C38.6586 61.632 39.1279 61.6213 39.5973 60.96C39.7893 60.64 40.0026 60.2133 40.2373 59.68C40.4933 59.168 40.7813 58.4747 41.1013 57.6L34.8932 42.752C34.7439 42.3467 34.5839 42.0267 34.4133 41.792C34.2426 41.536 33.9653 41.3227 33.5813 41.152L33.0053 40.928V40.608H40.9733V40.896L40.3333 41.152C39.8639 41.3013 39.6186 41.5467 39.5973 41.888C39.5973 42.208 39.6826 42.6133 39.8533 43.104L43.1813 51.744L46.3493 43.008C46.5199 42.5173 46.5839 42.112 46.5413 41.792C46.4986 41.4507 46.2319 41.216 45.7413 41.088L45.0693 40.928V40.608H49.5173V40.928L48.8133 41.152C48.3226 41.3013 47.9813 41.5147 47.7893 41.792C47.5973 42.0693 47.4159 42.4533 47.2453 42.944L42.0933 56.992C41.2613 59.232 40.4293 60.9067 39.5973 62.016C38.7653 63.1253 37.6879 63.68 36.3653 63.68ZM50.5775 56V55.68L51.0575 55.552C51.4842 55.424 51.7722 55.232 51.9215 54.976C52.0922 54.72 52.1775 54.3893 52.1775 53.984V43.968C52.1775 43.4987 52.0922 43.1573 51.9215 42.944C51.7722 42.7093 51.4842 42.5493 51.0575 42.464L50.5775 42.336V42.016L56.0815 40.16L56.4015 40.48L56.6895 43.232V43.488C56.9882 42.8907 57.3722 42.3467 57.8415 41.856C58.3322 41.344 58.8655 40.928 59.4415 40.608C60.0388 40.288 60.6255 40.128 61.2015 40.128C62.0122 40.128 62.6308 40.352 63.0575 40.8C63.4842 41.248 63.6975 41.8133 63.6975 42.496C63.6975 43.2213 63.4842 43.7867 63.0575 44.192C62.6522 44.576 62.1615 44.768 61.5855 44.768C60.6895 44.768 59.9002 44.32 59.2175 43.424L59.1535 43.36C58.9402 43.0613 58.6948 42.9013 58.4175 42.88C58.1402 42.8373 57.8842 42.9653 57.6495 43.264C57.4362 43.456 57.2548 43.6907 57.1055 43.968C56.9775 44.224 56.8495 44.5227 56.7215 44.864V53.792C56.7215 54.6453 57.0948 55.1787 57.8415 55.392L58.8655 55.68V56H50.5775ZM72.2345 40.128C73.6212 40.128 74.8052 40.416 75.7865 40.992C76.7678 41.5467 77.5145 42.3147 78.0265 43.296C78.5598 44.256 78.8265 45.3547 78.8265 46.592C78.8265 46.8267 78.8158 47.072 78.7945 47.328C78.7732 47.5627 78.7305 47.776 78.6665 47.968H69.1305C69.1518 50.272 69.5572 51.936 70.3465 52.96C71.1572 53.9627 72.3518 54.464 73.9305 54.464C74.9972 54.464 75.8612 54.2933 76.5225 53.952C77.1838 53.6107 77.8025 53.1093 78.3785 52.448L78.6985 52.736C78.0372 53.9093 77.1518 54.8267 76.0425 55.488C74.9545 56.1493 73.6425 56.48 72.1065 56.48C70.5918 56.48 69.2478 56.16 68.0745 55.52C66.9012 54.8587 65.9838 53.92 65.3225 52.704C64.6612 51.488 64.3305 50.0373 64.3305 48.352C64.3305 46.6027 64.7145 45.12 65.4825 43.904C66.2505 42.6667 67.2318 41.728 68.4265 41.088C69.6425 40.448 70.9118 40.128 72.2345 40.128ZM72.1385 40.768C71.5198 40.768 70.9865 40.96 70.5385 41.344C70.1118 41.7067 69.7705 42.368 69.5145 43.328C69.2798 44.2667 69.1518 45.6 69.1305 47.328H74.6025C74.8158 45.0027 74.7305 43.328 74.3465 42.304C73.9625 41.28 73.2265 40.768 72.1385 40.768ZM79.9853 56V55.68L80.4653 55.52C81.1906 55.2853 81.5533 54.7627 81.5533 53.952V36.832C81.5533 36.4053 81.4679 36.0853 81.2973 35.872C81.1266 35.6587 80.8279 35.488 80.4013 35.36L79.9853 35.264V34.944L85.8413 33.568L86.2253 33.856L86.1293 38.336V53.952C86.1293 54.8053 86.4813 55.3387 87.1853 55.552L87.6333 55.68V56H79.9853ZM91.8573 56L86.1613 48L92.0813 42.528C92.3586 42.272 92.5186 42.0053 92.5613 41.728C92.6253 41.4293 92.4439 41.216 92.0173 41.088L91.4733 40.928V40.608H96.2413V40.928L95.2812 41.184C94.8119 41.3333 94.4279 41.5147 94.1293 41.728C93.8519 41.92 93.5106 42.1973 93.1053 42.56L89.5213 45.92L95.2493 53.888C95.5906 54.3573 95.9106 54.72 96.2093 54.976C96.5079 55.232 96.8919 55.4453 97.3612 55.616L97.4893 55.68V56H91.8573Z" fill="#FFFFFA"/>
</svg>
