<svg xmlns="http://www.w3.org/2000/svg" height="48" viewBox="0 -960 960 960" width="48"><path d="M189-98q-37.45 0-64.225-26.775Q98-151.55 98-189v-582q0-37.863 26.775-64.931Q151.55-863 189-863h582q37.863 0 64.931 27.069Q863-808.863 863-771v582q0 37.45-27.069 64.225Q808.863-98 771-98H189Zm124-188h214q10.35 0 19.175-8.254 8.825-8.255 8.825-20.5Q555-325 546.175-334q-8.825-9-19.175-9H313q-12.35 0-20.675 8.956-8.325 8.956-8.325 20Q284-302 292.325-294T313-286Zm0-165h336q10.35 0 19.175-8.456 8.825-8.456 8.825-21Q677-492 668.175-500T649-508H313q-12.35 0-20.675 8.254-8.325 8.255-8.325 19.5 0 12.246 8.325 20.746Q300.65-451 313-451Zm.333-167H649q10.35 0 19.175-8.456 8.825-8.456 8.825-21 0-10.544-8.825-19.044T649-675H313.333q-12.491 0-20.912 8.754-8.421 8.755-8.421 19.5 0 11.746 8.421 20.246 8.421 8.5 20.912 8.5Z" fill="#2A324B" /></svg>