<svg width="40" height="40" viewBox="0 0 40 40" fill="none" xmlns="http://www.w3.org/2000/svg">
<path d="M0 10C0 4.47715 4.47715 0 10 0H30C35.5228 0 40 4.47715 40 10V30C40 35.5228 35.5228 40 30 40H10C4.47715 40 0 35.5228 0 30V10Z" fill="#50576E"/>
<path d="M14.4242 11.416C11.9442 11.416 10.7042 13.808 10.7042 18.592V20.488C10.7042 22.76 11.0322 24.544 11.6882 25.84C12.3442 27.12 13.3122 27.76 14.5922 27.76C16.3522 27.76 17.9682 26.048 19.4402 22.624H19.8722L19.7042 27.976H19.4402C19.3442 27.8 19.2562 27.68 19.1762 27.616C19.0962 27.536 18.9682 27.496 18.7922 27.496C18.6322 27.496 18.1042 27.608 17.2082 27.832C16.3122 28.056 15.4242 28.184 14.5442 28.216L13.8482 29.416C14.1842 29.368 14.4482 29.344 14.6402 29.344C16.3202 29.344 17.1602 30.056 17.1602 31.48C17.1602 32.136 16.8962 32.712 16.3682 33.208C15.8402 33.72 15.0162 33.976 13.8962 33.976C13.1602 33.976 12.5602 33.824 12.0962 33.52C11.6482 33.232 11.4242 32.888 11.4242 32.488C11.4242 32.088 11.5202 31.792 11.7122 31.6C11.9042 31.408 12.1522 31.312 12.4562 31.312C13.0002 31.312 13.3682 31.616 13.5602 32.224L12.9362 32.704C12.9362 32.928 13.0002 33.128 13.1282 33.304C13.2562 33.496 13.4642 33.592 13.7522 33.592C14.0562 33.592 14.2722 33.448 14.4002 33.16C14.5442 32.888 14.6162 32.456 14.6162 31.864C14.6162 31.288 14.6002 30.88 14.5682 30.64C14.5202 30.064 14.2802 29.776 13.8482 29.776C13.6242 29.776 13.3842 29.808 13.1282 29.872L13.0562 29.656L13.8962 28.24C11.3202 28.208 9.32822 27.496 7.92022 26.104C6.51222 24.696 5.80822 22.584 5.80822 19.768C5.80822 16.952 6.55222 14.776 8.04022 13.24C9.54422 11.704 11.5602 10.936 14.0882 10.936C15.0642 10.936 16.0162 11.064 16.9442 11.32C17.8882 11.56 18.4402 11.68 18.6002 11.68C18.7602 11.68 18.8802 11.648 18.9602 11.584C19.0402 11.504 19.1282 11.376 19.2242 11.2H19.4882L19.6802 16.408H19.2482C18.5282 14.792 17.7842 13.56 17.0162 12.712C16.2642 11.848 15.4002 11.416 14.4242 11.416Z" fill="#E1E5EE"/>
<path d="M28.5852 27.736C29.3852 27.736 30.0892 27.52 30.6972 27.088C31.3212 26.656 31.6332 26.008 31.6332 25.144C31.6332 24.264 31.2972 23.592 30.6252 23.128C29.9692 22.664 29.0252 22.264 27.7932 21.928C26.5772 21.576 25.6892 21.272 25.1292 21.016C24.5852 20.76 24.0652 20.424 23.5692 20.008C22.5772 19.176 22.0812 17.888 22.0812 16.144C22.0812 14.72 22.5852 13.496 23.5932 12.472C24.6172 11.448 26.0092 10.936 27.7692 10.936C28.6172 10.936 29.4972 11.064 30.4092 11.32C31.3372 11.56 31.9132 11.68 32.1372 11.68C32.3612 11.68 32.5612 11.52 32.7372 11.2H33.0012L33.1692 16.048H32.7852C32.0172 14.656 31.2092 13.544 30.3612 12.712C29.5292 11.864 28.6172 11.44 27.6252 11.44C26.6492 11.44 25.8892 11.672 25.3452 12.136C24.8012 12.584 24.5292 13.192 24.5292 13.96C24.5292 14.712 24.8492 15.296 25.4892 15.712C26.1452 16.112 26.9452 16.44 27.8892 16.696C28.8332 16.952 29.4492 17.128 29.7372 17.224C30.0412 17.32 30.4092 17.456 30.8412 17.632C31.2892 17.792 31.6492 17.968 31.9212 18.16C32.2092 18.336 32.5052 18.568 32.8092 18.856C33.1292 19.128 33.3772 19.432 33.5532 19.768C33.9852 20.536 34.2012 21.448 34.2012 22.504C34.2012 24.232 33.6572 25.624 32.5692 26.68C31.4972 27.72 30.0812 28.24 28.3212 28.24C27.4092 28.24 26.3612 28.12 25.1772 27.88C24.0092 27.64 23.3612 27.52 23.2332 27.52C23.0092 27.52 22.7932 27.76 22.5852 28.24H22.2492L22.0092 22.528H22.4172C23.1212 23.92 24.0172 25.136 25.1052 26.176C26.2092 27.216 27.3692 27.736 28.5852 27.736Z" fill="#E1E5EE"/>
</svg>
