<svg xmlns="http://www.w3.org/2000/svg" height="48" viewBox="0 -960 960 960" width="48"><path d="M190-99q-37.175 0-64.088-26.912Q99-152.825 99-190v-580q0-37.588 26.912-64.794Q152.825-862 190-862h221q20.2 0 33.1 13.263 12.9 13.263 12.9 32.816 0 19.553-12.9 32.737Q431.2-770 411-770H190v580h580v-221q0-20.2 13.56-33.1 13.559-12.9 32.212-12.9 20.053 0 33.14 12.9Q862-431.2 862-411v221q0 37.175-27.206 64.088Q807.588-99 770-99H190Zm580-607L437-372q-14.067 13-31.511 12-17.445-1-31.489-14.232-13-14.277-13-32.022Q361-424 374-437l333-333H562q-18.375 0-31.688-13.56Q517-797.119 517-815.772q0-20.053 13.312-33.14Q543.625-862 562-862h254q19.65 0 32.825 13.175Q862-835.65 862-816v254q0 18.375-13.263 31.688Q835.474-517 815.921-517q-19.553 0-32.737-13.312Q770-543.625 770-562v-144Z" fill="#2A324B" /></svg>