<svg width="400" height="100" viewBox="0 0 400 100" fill="none" xmlns="http://www.w3.org/2000/svg">
<path d="M300 50C300 22.3858 322.386 0 350 0C377.614 0 400 22.3858 400 50C400 77.6142 377.614 100 350 100C322.386 100 300 77.6142 300 50Z" fill="#2A324B" fill-opacity="0.35"/>
<path d="M150 50C150 22.3858 172.386 0 200 0C227.614 0 250 22.3858 250 50C250 77.6142 227.614 100 200 100C172.386 100 150 77.6142 150 50Z" fill="#2A324B" fill-opacity="0.35"/>
<path d="M0 50C0 22.3858 22.3858 0 50 0C77.6142 0 100 22.3858 100 50C100 77.6142 77.6142 100 50 100C22.3858 100 0 77.6142 0 50Z" fill="#2A324B" fill-opacity="0.35"/>
</svg>
