<svg xmlns="http://www.w3.org/2000/svg" height="48" viewBox="0 -960 960 960" width="48"><path d="M627-139q-20.2 0-33.1-12.675-12.9-12.676-12.9-33.816 0-19.141 11.95-31.325Q604.9-229 626-229h47q25.25 0 42.125-16.9T732-288v-79q0-36.22 22-67.11T812-476v-8q-37-10-58.5-41.24Q732-556.48 732-593v-80q0-25.25-16.875-42.125T673-732h-46q-20.2 0-33.1-12.675-12.9-12.676-12.9-32.816 0-19.141 11.95-31.825Q604.9-822 626-822h70q53.333 0 89.667 36.333Q822-749.333 822-694v79q0 25.2 16.487 42.1Q854.975-556 882-556q6.975 0 13.487 6.034Q902-543.933 902-535.927v111.146q0 9.006-6.513 14.393Q888.975-405 882-405q-27.025 0-43.513 16.875Q822-371.25 822-346v80q0 55.333-36.333 91.167Q749.333-139 696-139h-69Zm-362 0q-54.333 0-90.167-35.833Q139-210.667 139-266v-80q0-25.25-16.9-42.125T80-405q-10.275 0-15.638-5.383Q59-415.767 59-426.073v-109.146q0-9.306 5.362-15.043Q69.725-556 80-556q25.2 0 42.1-16.9Q139-589.8 139-615v-79q0-55.333 35.833-91.667Q210.667-822 265-822h69q18.2 0 31.6 13.605 13.4 13.606 13.4 32.746 0 20.14-12.4 31.895Q354.2-732 334-732h-46q-25.2 0-42.1 16.875Q229-698.25 229-673v80q0 36.681-22.05 68.053T150-484v8.472q34.9 10.438 56.95 41.133Q229-403.7 229-367v79q0 25.2 16.9 42.1Q262.8-229 288-229h46q18.2 0 31.6 13.105 13.4 13.106 13.4 32.246 0 21.14-12.4 32.895Q354.2-139 334-139h-69Z" fill="#E1E5EE" /></svg>