<svg xmlns="http://www.w3.org/2000/svg" height="48" viewBox="0 -960 960 960" width="48"><path d="M428-183q-20.775 0-33.388-13.56Q382-210.119 382-228.86q0-20.14 12.612-32.64Q407.225-274 428-274h388q18.675 0 32.838 12.675Q863-248.649 863-229.009q0 19.641-14.162 32.825Q834.675-183 816-183H428Zm0-251q-20.775 0-33.388-13.56Q382-461.119 382-479.86q0-20.14 12.612-32.64Q407.225-525 428-525h388q18.675 0 32.838 12.675Q863-499.649 863-480.009q0 19.641-14.162 32.825Q834.675-434 816-434H428Zm0-253q-20.775 0-33.388-12.86Q382-712.719 382-732.36 382-752 394.612-765q12.613-13 33.388-13h388q18.675 0 32.838 13.375Q863-751.249 863-732.509q0 20.141-14.162 32.825Q834.675-687 816-687H428ZM179.845-148q-32.895 0-56.87-23.206Q99-194.412 99-228.819 99-261 122.675-285t57.807-24q32.845 0 55.682 24.338Q259-260.324 259-227.137q0 32.362-23.542 55.75Q211.915-148 179.845-148Zm0-251q-32.895 0-56.87-23.936Q99-446.871 99-480.726q0-32.566 24.15-56.42T180.982-561q31.57 0 54.794 24.252Q259-512.496 259-479.429q0 33.067-23.542 56.748Q211.915-399 179.845-399Zm-1-253q-32.482 0-56.164-23.9Q99-699.801 99-733.363q0-32.275 23.856-55.956Q146.712-813 179.982-813q31.983 0 55.5 24.044Q259-764.912 259-732.137q0 32.775-23.836 56.456Q211.328-652 178.845-652Z" fill="#E1E5EE" /></svg>