<svg xmlns="http://www.w3.org/2000/svg" height="48" viewBox="0 -960 960 960" width="48"><path d="M144-233q-19.3 0-32.15-12.658Q99-258.316 99-278.728q0-19.412 12.85-32.342T144-324h479q20.3 0 33.15 12.88Q669-298.239 669-278.395q0 20.42-12.85 32.907Q643.3-233 623-233H144Zm0-201q-19.3 0-32.15-13.36Q99-460.719 99-479.93q0-20.21 12.85-33.14T144-526h479q20.3 0 33.15 12.991 12.85 12.991 12.85 33.5Q669-460 656.15-447T623-434H144Zm0-202q-19.3 0-32.15-13.158Q99-662.316 99-681.728t12.85-32.842Q124.7-728 144-728h479q20.3 0 33.15 13.38Q669-701.24 669-681.395q0 19.42-12.85 32.408Q643.3-636 623-636H144Zm673.658 403q-20.058 0-33.358-12.998-13.3-12.999-13.3-33.388 0-17.964 13.42-31.289Q797.84-324 818.14-324q17.551 0 30.705 13.519Q862-296.963 862-277.544q0 18.994-13.355 31.769Q835.291-233 817.658-233Zm0-202q-20.058 0-33.358-12.242-13.3-12.242-13.3-31.512 0-18.846 13.42-32.546t33.72-13.7q17.551 0 30.705 13.579Q862-497.842 862-478.675q0 19.266-13.355 31.471Q835.291-435 817.658-435Zm0-202q-20.058 0-33.358-12.788-13.3-12.788-13.3-32.975 0-16.587 13.42-30.412T818.14-727q17.551 0 30.705 13.755Q862-699.491 862-682.158q0 19.758-13.355 32.458-13.354 12.7-30.987 12.7Z" fill="#E1E5EE" /></svg>