<svg xmlns="http://www.w3.org/2000/svg" height="48" viewBox="0 -960 960 960" width="48"><path d="M480-59q-79.751 0-148.44-25.767-68.69-25.766-119.733-69.292-51.043-43.525-78.935-100.277Q105-311.087 105-372v-63q0-13.5 11.781-20.25T141-453l96 71q17 14 19.5 33T243-315l-26 27q31 51 93.5 90.5T435-155v-348h-85q-19.025 0-32.013-12.982-12.987-12.983-12.987-32Q305-567 317.987-580.5 330.975-594 350-594h85v-61q-47-19-69-51.983-22-32.984-22-73.684 0-58.583 39.618-98.958Q423.235-920 480.118-920 538-920 578-879.375 618-838.75 618-781q0 40.83-23.156 73.942Q571.688-673.946 526-655v61h84q19.45 0 32.725 13.275Q656-567.45 656-548q0 19.025-13.275 32.013Q629.45-503 610-503h-84v348q61-3 123.5-42.5T743-288l-25-27q-17-15-14.5-34t20.7-33.443L820-453q11.438-9 23.719-2.25T856-435v63q0 60.913-28.392 117.664-28.392 56.752-79.435 100.277-51.043 43.526-119.733 69.292Q559.751-59 480-59Zm-.395-677Q500-736 513-748.605q13-12.606 13-32Q526-801 512.882-814.5 499.764-828 479.895-828 460-828 447.5-814.382 435-800.764 435-780.895 435-761 447.605-748.5q12.606 12.5 32 12.5Z" fill="#E1E5EE" /></svg>