<svg width="100" height="100" viewBox="0 0 100 100" fill="none" xmlns="http://www.w3.org/2000/svg">
<path d="M0 50C0 22.3858 22.3858 0 50 0C77.6142 0 100 22.3858 100 50C100 77.6142 77.6142 100 50 100C22.3858 100 0 77.6142 0 50Z" fill="#50576E"/>
<path d="M36 29.54C29.8 29.54 26.7 35.52 26.7 47.48V52.22C26.7 57.9 27.52 62.36 29.16 65.6C30.8 68.8 33.22 70.4 36.42 70.4C40.82 70.4 44.86 66.12 48.54 57.56H49.62L49.2 70.94H48.54C48.3 70.5 48.08 70.2 47.88 70.04C47.68 69.84 47.36 69.74 46.92 69.74C46.52 69.74 45.2 70.02 42.96 70.58C40.72 71.14 38.5 71.46 36.3 71.54L34.56 74.54C35.4 74.42 36.06 74.36 36.54 74.36C40.74 74.36 42.84 76.14 42.84 79.7C42.84 81.34 42.18 82.78 40.86 84.02C39.54 85.3 37.48 85.94 34.68 85.94C32.84 85.94 31.34 85.56 30.18 84.8C29.06 84.08 28.5 83.22 28.5 82.22C28.5 81.22 28.74 80.48 29.22 80C29.7 79.52 30.32 79.28 31.08 79.28C32.44 79.28 33.36 80.04 33.84 81.56L32.28 82.76C32.28 83.32 32.44 83.82 32.76 84.26C33.08 84.74 33.6 84.98 34.32 84.98C35.08 84.98 35.62 84.62 35.94 83.9C36.3 83.22 36.48 82.14 36.48 80.66C36.48 79.22 36.44 78.2 36.36 77.6C36.24 76.16 35.64 75.44 34.56 75.44C34 75.44 33.4 75.52 32.76 75.68L32.58 75.14L34.68 71.6C28.24 71.52 23.26 69.74 19.74 66.26C16.22 62.74 14.46 57.46 14.46 50.42C14.46 43.38 16.32 37.94 20.04 34.1C23.8 30.26 28.84 28.34 35.16 28.34C37.6 28.34 39.98 28.66 42.3 29.3C44.66 29.9 46.04 30.2 46.44 30.2C46.84 30.2 47.14 30.12 47.34 29.96C47.54 29.76 47.76 29.44 48 29H48.66L49.14 42.02H48.06C46.26 37.98 44.4 34.9 42.48 32.78C40.6 30.62 38.44 29.54 36 29.54Z" fill="#E1E5EE"/>
<path d="M71.4023 70.34C73.4023 70.34 75.1623 69.8 76.6823 68.72C78.2423 67.64 79.0223 66.02 79.0223 63.86C79.0223 61.66 78.1823 59.98 76.5023 58.82C74.8623 57.66 72.5023 56.66 69.4223 55.82C66.3823 54.94 64.1623 54.18 62.7623 53.54C61.4023 52.9 60.1023 52.06 58.8623 51.02C56.3823 48.94 55.1423 45.72 55.1423 41.36C55.1423 37.8 56.4023 34.74 58.9223 32.18C61.4823 29.62 64.9623 28.34 69.3623 28.34C71.4823 28.34 73.6823 28.66 75.9623 29.3C78.2823 29.9 79.7223 30.2 80.2823 30.2C80.8423 30.2 81.3423 29.8 81.7823 29H82.4423L82.8623 41.12H81.9023C79.9823 37.64 77.9623 34.86 75.8423 32.78C73.7623 30.66 71.4823 29.6 69.0023 29.6C66.5623 29.6 64.6623 30.18 63.3023 31.34C61.9423 32.46 61.2623 33.98 61.2623 35.9C61.2623 37.78 62.0623 39.24 63.6623 40.28C65.3023 41.28 67.3023 42.1 69.6623 42.74C72.0223 43.38 73.5623 43.82 74.2823 44.06C75.0423 44.3 75.9623 44.64 77.0423 45.08C78.1623 45.48 79.0623 45.92 79.7423 46.4C80.4623 46.84 81.2023 47.42 81.9623 48.14C82.7623 48.82 83.3823 49.58 83.8223 50.42C84.9023 52.34 85.4423 54.62 85.4423 57.26C85.4423 61.58 84.0823 65.06 81.3623 67.7C78.6823 70.3 75.1423 71.6 70.7423 71.6C68.4623 71.6 65.8423 71.3 62.8823 70.7C59.9623 70.1 58.3423 69.8 58.0223 69.8C57.4623 69.8 56.9223 70.4 56.4023 71.6H55.5623L54.9623 57.32H55.9823C57.7423 60.8 59.9823 63.84 62.7023 66.44C65.4623 69.04 68.3623 70.34 71.4023 70.34Z" fill="#E1E5EE"/>
</svg>
